<svg xmlns="http://www.w3.org/2000/svg" width="51.254" height="51.254" viewBox="0 0 51.254 51.254">
  <g id="Group_18409" data-name="Group 18409" transform="translate(0.001)">
    <path id="Path_26402" data-name="Path 26402" d="M116.808,51.254h-27.5A11.877,11.877,0,0,1,77.431,39.377v-27.5A11.878,11.878,0,0,1,89.308,0h27.5a11.878,11.878,0,0,1,11.877,11.877v27.5a11.877,11.877,0,0,1-11.877,11.877" transform="translate(-77.432)" fill="#ff2700"/>
    <path id="Path_26404" data-name="Path 26404" d="M103.953,25.627a.9.9,0,1,1-.9-.9.9.9,0,0,1,.9.9" transform="translate(-77.432)" fill="#fff"/>
    <path id="Path_26405" data-name="Path 26405" d="M116,16.151h-5.524v-.076a2.45,2.45,0,0,0-2.449-2.449H98.084a2.449,2.449,0,0,0-2.448,2.449v.076H90.112A3.547,3.547,0,0,0,86.565,19.7V34.082a3.547,3.547,0,0,0,3.547,3.547H116a3.547,3.547,0,0,0,3.546-3.547V19.7A3.547,3.547,0,0,0,116,16.151M103.058,33.624a6.734,6.734,0,1,1,6.734-6.734,6.734,6.734,0,0,1-6.734,6.734" transform="translate(-77.432)" fill="#fff"/>
    <path id="Path_26406" data-name="Path 26406" d="M103.058,22.479a4.411,4.411,0,1,0,4.411,4.411,4.411,4.411,0,0,0-4.411-4.411" transform="translate(-77.432)" fill="#fff"/>
    <rect id="Rectangle_4394" data-name="Rectangle 4394" width="5.262" height="0.948" transform="translate(22.996 25.152)" fill="#fff"/>
  </g>
</svg>
