<svg xmlns="http://www.w3.org/2000/svg" width="52" height="52" viewBox="0 0 52 52">
  <g id="Group_18425" data-name="Group 18425" transform="translate(-50 -836)">
    <rect id="Rectangle_287" data-name="Rectangle 287" width="52" height="52" rx="15" transform="translate(50 836)" fill="#8c5cde"/>
    <g id="_3669370_contacts_ic_icon_1_" data-name="3669370_contacts_ic_icon (1)" transform="translate(65 851)">
      <path id="Path_12133" data-name="Path 12133" d="M0,0H22.261V22.261H0ZM0,0H22.261V22.261H0ZM0,0H22.261V22.261H0Z" fill="none"/>
      <path id="Path_12134" data-name="Path 12134" d="M20.7,0H5.855V1.855H20.7ZM5.855,22.261H20.7V20.406H5.855ZM20.7,3.71H5.855A1.855,1.855,0,0,0,4,5.565V16.7a1.855,1.855,0,0,0,1.855,1.855H20.7A1.855,1.855,0,0,0,22.551,16.7V5.565A1.855,1.855,0,0,0,20.7,3.71Zm-7.42,2.551a2.087,2.087,0,1,1-2.087,2.087A2.09,2.09,0,0,1,13.276,6.261Zm4.638,9.507H8.638V14.377c0-1.544,3.093-2.319,4.638-2.319s4.638.775,4.638,2.319Z" transform="translate(-2.145)" fill="#fff"/>
    </g>
  </g>
</svg>
