<svg id="Group_18408" data-name="Group 18408" xmlns="http://www.w3.org/2000/svg" width="51.254" height="51.254" viewBox="0 0 51.254 51.254">
  <path id="Path_26399" data-name="Path 26399" d="M39.377,51.254h-27.5A11.877,11.877,0,0,1,0,39.377v-27.5A11.878,11.878,0,0,1,11.877,0h27.5A11.878,11.878,0,0,1,51.254,11.877v27.5A11.877,11.877,0,0,1,39.377,51.254" fill="#3fa9f5"/>
  <path id="Path_26401" data-name="Path 26401" d="M37.563,36.366c-.2-4.315-5.164-7.079-6.947-7.6a1.925,1.925,0,0,1-.856-1.038,9.537,9.537,0,0,0,2.859-7.05c0-4.874-3.232-8.836-7.2-8.836s-7.207,3.962-7.207,8.836a9.54,9.54,0,0,0,2.859,7.05,1.927,1.927,0,0,1-.853,1.038c-1.785.52-6.744,3.284-6.949,7.6l-.03.633.542.327c.138.086,3.525,2.085,11.638,2.085s11.5-2,11.634-2.085L37.593,37Z" fill="#fff"/>
</svg>
