<svg xmlns="http://www.w3.org/2000/svg" width="51.254" height="51.253" viewBox="0 0 51.254 51.253">
  <g id="Group_18412" data-name="Group 18412" transform="translate(0.001 0)">
    <path id="Path_26417" data-name="Path 26417" d="M116.808,124.5h-27.5a11.877,11.877,0,0,1-11.877-11.877v-27.5A11.877,11.877,0,0,1,89.308,73.246h27.5a11.877,11.877,0,0,1,11.877,11.876v27.5A11.877,11.877,0,0,1,116.808,124.5" transform="translate(-77.432 -73.246)" fill="#355c7d"/>
    <path id="Path_26419" data-name="Path 26419" d="M94.742,84.757l-.469-.469-.645.646-.372-.372-3.662,3.663.709.709L89.02,90.216l-.235-.235-.273.272-.473-.473-2.228,2.227L90.2,96.4l2.228-2.228-.5-.5.272-.273-.211-.211,1.137-1.137.714.715.725-.725.939.94-.433.432,1.443,1.443.432-.433,19.133,19.132,1.206-1.206.092-.092,1.207-1.207L99.451,91.914l.432-.433-1.442-1.442-.433.432-.939-.939.724-.724-.377-.377.5-.5-.4-.4a5.678,5.678,0,0,1,4.346-2.11v-.686c-3.428-2.454-7.122.019-7.122.019" transform="translate(-77.432 -73.246)" fill="#fff"/>
    <path id="Path_26420" data-name="Path 26420" d="M100.387,106.832l12.656-12.656a5.312,5.312,0,0,0,6.875-6.932l-3.193,3.192a1.42,1.42,0,0,1-2.009,0l-.872-.872a1.49,1.49,0,0,1,0-2.107l3.143-3.144a5.312,5.312,0,0,0-6.932,6.875L97.4,103.844a5.311,5.311,0,0,0-6.874,6.932l3.192-3.192a1.42,1.42,0,0,1,2.009,0l.872.872a1.49,1.49,0,0,1,0,2.107l-3.143,3.143a5.311,5.311,0,0,0,6.932-6.874" transform="translate(-77.432 -73.246)" fill="#fff"/>
  </g>
</svg>
