<svg xmlns="http://www.w3.org/2000/svg" width="52" height="52" viewBox="0 0 52 52">
  <g id="Group_18424" data-name="Group 18424" transform="translate(-50 -764)">
    <rect id="Rectangle_284" data-name="Rectangle 284" width="52" height="52" rx="15" transform="translate(50 764)" fill="#f98151"/>
    <g id="_4945350_document_extension_files_folders_min_icon" data-name="4945350_document_extension_files_folders_min_icon" transform="translate(61.746 775.75)">
      <path id="Path_12127" data-name="Path 12127" d="M26.1,11.383a.672.672,0,0,0-.5-.227H23.743l-.113.759a.646.646,0,0,1-.646.55H5.524a.646.646,0,0,1-.646-.576l-.113-.759H2.905a.672.672,0,0,0-.5.227.681.681,0,0,0-.148.524l2.1,14.072a.646.646,0,0,0,.646.559H23.5a.646.646,0,0,0,.646-.559l2.1-14.064a.681.681,0,0,0-.148-.506Zm-8.354,8.11H10.762a.655.655,0,0,1,0-1.309h6.984a.655.655,0,0,1,0,1.309Z" transform="translate(0 -1.001)" fill="#fff"/>
      <path id="Path_12128" data-name="Path 12128" d="M21.341,6.759H22.65L23.06,4a.646.646,0,0,0-.646-.751H7.155A.646.646,0,0,0,6.509,4l.428,2.759Z" transform="translate(-0.539)" fill="#fff"/>
      <path id="Path_12129" data-name="Path 12129" d="M22.731,10.666h1.318l.4-2.619a.681.681,0,0,0-.148-.524.672.672,0,0,0-.5-.227H22.417l-.113.751a.646.646,0,0,1-.646.559H7.445A.646.646,0,0,1,6.8,8.047L6.7,7.27H5.315a.672.672,0,0,0-.5.227.681.681,0,0,0-.148.524l.4,2.619h17.66Z" transform="translate(-0.306 -0.511)" fill="#fff"/>
    </g>
  </g>
</svg>
