<svg xmlns="http://www.w3.org/2000/svg" width="51.254" height="51.253" viewBox="0 0 51.254 51.253">
  <g id="Group_18416" data-name="Group 18416" transform="translate(-0.001 -0.001)">
    <path id="Path_26433" data-name="Path 26433" d="M194.239,197.744h-27.5a11.877,11.877,0,0,1-11.877-11.877v-27.5a11.877,11.877,0,0,1,11.877-11.876h27.5a11.877,11.877,0,0,1,11.877,11.876v27.5a11.877,11.877,0,0,1-11.877,11.877" transform="translate(-154.861 -146.49)" fill="#1a6d8c"/>
    <path id="Path_26435" data-name="Path 26435" d="M180.49,156.562a15.556,15.556,0,1,0,15.554,15.557,15.577,15.577,0,0,0-15.554-15.557m-13.562,16.529h4.379a24.689,24.689,0,0,0,.934,6.028h-3.4a13.474,13.474,0,0,1-1.911-6.028m14.626-9.917v-4.493c1.707.492,3.235,2.14,4.35,4.493Zm5.121,1.946a22.244,22.244,0,0,1,1.053,6.027h-6.174V165.12Zm-7.064-6.495v4.549h-4.538c1.156-2.438,2.755-4.125,4.538-4.549m0,6.495v6.027h-6.36a22.129,22.129,0,0,1,1.053-6.027Zm-8.3,6.027h-4.379a13.47,13.47,0,0,1,1.911-6.027h3.4a24.68,24.68,0,0,0-.934,6.027m1.944,1.944h6.36v6.028H174.3a22.129,22.129,0,0,1-1.053-6.028m6.36,7.971v4.556c-1.783-.428-3.382-2.111-4.538-4.556Zm1.943,4.5v-4.5h4.35c-1.115,2.355-2.643,4-4.35,4.5m0-6.439v-6.028h6.174a22.244,22.244,0,0,1-1.053,6.028Zm8.12-6.028h4.375a13.47,13.47,0,0,1-1.907,6.028h-3.4a24.687,24.687,0,0,0,.936-6.028m0-1.944a24.678,24.678,0,0,0-.936-6.027h3.4a13.466,13.466,0,0,1,1.907,6.027Zm1.046-7.973h-2.656a14.748,14.748,0,0,0-1.948-3.432,13.575,13.575,0,0,1,4.6,3.432m-15.859-3.432a14.673,14.673,0,0,0-1.946,3.432h-2.659a13.6,13.6,0,0,1,4.6-3.432m-4.6,21.32h2.659a14.587,14.587,0,0,0,1.946,3.434,13.6,13.6,0,0,1-4.6-3.434m15.86,3.434a14.661,14.661,0,0,0,1.948-3.434h2.656a13.581,13.581,0,0,1-4.6,3.434" transform="translate(-154.861 -146.49)" fill="#fff"/>
  </g>
</svg>
