<svg xmlns="http://www.w3.org/2000/svg" width="51.254" height="51.253" viewBox="0 0 51.254 51.253">
  <g id="Group_18414" data-name="Group 18414" transform="translate(0 -0.001)">
    <path id="Path_26428" data-name="Path 26428" d="M39.377,197.744h-27.5A11.877,11.877,0,0,1,0,185.867v-27.5a11.877,11.877,0,0,1,11.877-11.876h27.5a11.877,11.877,0,0,1,11.877,11.876v27.5a11.877,11.877,0,0,1-11.877,11.877" transform="translate(0 -146.49)" fill="#7f49ec"/>
    <path id="Path_26430" data-name="Path 26430" d="M43.82,164.733a7,7,0,0,0-1.415-3.2,6.366,6.366,0,0,0-4.626-2.6,5.22,5.22,0,0,0-4.988,3.369A5.218,5.218,0,0,0,27.8,158.93a6.366,6.366,0,0,0-4.626,2.6,7,7,0,0,0-1.415,3.2c-.438,2.915,1.385,5.844,3.909,7.366.925.558,1.938.962,2.858,1.529a10.673,10.673,0,0,1,4.261,4.285,10.676,10.676,0,0,1,4.262-4.285c.92-.567,1.932-.971,2.858-1.529,2.524-1.522,4.347-4.451,3.909-7.366" transform="translate(0 -146.49)" fill="#fff"/>
  </g>
</svg>
