<svg xmlns="http://www.w3.org/2000/svg" width="51.254" height="51.253" viewBox="0 0 51.254 51.253">
  <g id="Group_18427" data-name="Group 18427" transform="translate(-46.865 -606.944)">
    <path id="Path_26421" data-name="Path 26421" d="M39.377,124.5h-27.5A11.877,11.877,0,0,1,0,112.622v-27.5A11.877,11.877,0,0,1,11.877,73.246h27.5A11.877,11.877,0,0,1,51.254,85.122v27.5A11.877,11.877,0,0,1,39.377,124.5" transform="translate(46.865 533.698)" fill="#ff7300"/>
    <path id="Path_26423" data-name="Path 26423" d="M36.77,95.4a11.143,11.143,0,1,0-19.313,7.56l8.166,10.51v.01l0-.005,0,.005v-.01l8.166-10.51h0A11.091,11.091,0,0,0,36.77,95.4M25.627,98.577A3.173,3.173,0,1,1,28.8,95.4a3.173,3.173,0,0,1-3.173,3.173" transform="translate(46.865 533.698)" fill="#fff"/>
  </g>
</svg>
