<svg xmlns="http://www.w3.org/2000/svg" width="51.254" height="51.253" viewBox="0 0 51.254 51.253">
  <g id="Group_18411" data-name="Group 18411" transform="translate(-0.001 0)">
    <path id="Path_26414" data-name="Path 26414" d="M194.239,124.5h-27.5a11.877,11.877,0,0,1-11.877-11.877v-27.5a11.877,11.877,0,0,1,11.877-11.876h27.5a11.877,11.877,0,0,1,11.877,11.876v27.5A11.877,11.877,0,0,1,194.239,124.5" transform="translate(-154.861 -73.246)" fill="#ff41a7"/>
    <path id="Path_26416" data-name="Path 26416" d="M191.272,107.544l-.021-.061.179-16.97.053-5.2.023-2.2-18.468,3.319-.009,1.1h-.037l-.208,19.914a3.442,3.442,0,0,0-3.135-.929c-3.394.367-4.589,3.61-3.312,5.185s4.982,1.658,6.469.067a3.1,3.1,0,0,0,.96-1.939h0l.167-16.113L190.415,90.7l-.152,14.58a3.453,3.453,0,0,0-3.1-.9c-3.394.366-4.588,3.61-3.311,5.184s4.979,1.658,6.468.068a2.844,2.844,0,0,0,.957-2.085" transform="translate(-154.861 -73.246)" fill="#fff"/>
  </g>
</svg>
