<svg xmlns="http://www.w3.org/2000/svg" width="52" height="52" viewBox="0 0 52 52">
  <g id="Group_18421" data-name="Group 18421" transform="translate(-50 -548)">
    <rect id="Rectangle_62" data-name="Rectangle 62" width="52" height="52" rx="15" transform="translate(50 548)" fill="#df5ddf"/>
    <path id="Path_26368" data-name="Path 26368" d="M29,8H26C21.848,8.053,5.985,21.249,6,24v3a1,1,0,0,0,1,1H29a1,1,0,0,0,1-1V9A1,1,0,0,0,29,8ZM26.539,8H7A1,1,0,0,0,6,9V24ZM12,12a2,2,0,1,1-2,2A2,2,0,0,1,12,12ZM25.89,23.46A1,1,0,0,1,25,24H11a1,1,0,0,1-.8-1.6l3-4a1,1,0,0,1,1.25-.29l1.35.67,3.49-3.49a.995.995,0,0,1,1.52.13l5,7A1,1,0,0,1,25.89,23.46Z" transform="translate(58 556)" fill="#fff"/>
  </g>
</svg>
