<svg xmlns="http://www.w3.org/2000/svg" width="51.254" height="51.253" viewBox="0 0 51.254 51.253">
  <g id="Group_18417" data-name="Group 18417" transform="translate(0.001 -0.001)">
    <path id="Path_26436" data-name="Path 26436" d="M271.669,197.744h-27.5a11.877,11.877,0,0,1-11.877-11.877v-27.5a11.877,11.877,0,0,1,11.877-11.876h27.5a11.877,11.877,0,0,1,11.877,11.876v27.5a11.877,11.877,0,0,1-11.877,11.877" transform="translate(-232.293 -146.49)" fill="#7e8aa2"/>
    <path id="Path_26438" data-name="Path 26438" d="M265.157,155.662H243.986v32.91h27.867V162.357ZM267,185.005H248.841a.454.454,0,1,1,0-.908H267a.454.454,0,1,1,0,.908m0-3.91H248.841a.454.454,0,1,1,0-.908H267a.454.454,0,1,1,0,.908m0-3.91H248.841a.454.454,0,1,1,0-.908H267a.454.454,0,1,1,0,.908m0-3.91H248.841a.453.453,0,1,1,0-.907H267a.453.453,0,1,1,0,.907m0-3.909H248.841a.454.454,0,1,1,0-.908H267a.454.454,0,1,1,0,.908m0-3.91H248.841a.454.454,0,1,1,0-.908H267a.454.454,0,1,1,0,.908m0-3.91H248.841a.454.454,0,1,1,0-.908H267a.454.454,0,1,1,0,.908" transform="translate(-232.293 -146.49)" fill="#fff"/>
  </g>
</svg>
