<svg xmlns="http://www.w3.org/2000/svg" width="51.254" height="51.254" viewBox="0 0 51.254 51.254">
  <g id="Group_18410" data-name="Group 18410" transform="translate(0.001)">
    <path id="Path_26410" data-name="Path 26410" d="M271.669,51.254h-27.5a11.877,11.877,0,0,1-11.877-11.877v-27.5A11.878,11.878,0,0,1,244.169,0h27.5a11.878,11.878,0,0,1,11.877,11.877v27.5a11.877,11.877,0,0,1-11.877,11.877" transform="translate(-232.293)" fill="#1edc89"/>
    <path id="Path_26412" data-name="Path 26412" d="M263.118,35.64H245.145a4.416,4.416,0,0,1-4.417-4.417V20.03a4.416,4.416,0,0,1,4.417-4.416h17.973a4.417,4.417,0,0,1,4.417,4.416V31.223a4.417,4.417,0,0,1-4.417,4.417" transform="translate(-232.293)" fill="#fff"/>
    <path id="Path_26413" data-name="Path 26413" d="M268.725,21.724V29.53l6.386,2.838V18.886Z" transform="translate(-232.293)" fill="#fff"/>
  </g>
</svg>
