<svg xmlns="http://www.w3.org/2000/svg" width="18.042" height="18.042" viewBox="0 0 18.042 18.042">
  <g id="_6637732_apps_boxes_dashboard_menu_select_icon" data-name="6637732_apps_boxes_dashboard_menu_select_icon" transform="translate(-3 -3)" opacity="0.2">
    <path id="Path_85" data-name="Path 85" d="M5,16a2,2,0,0,1,2-2h3.007a2,2,0,0,1,2,2v3.007a2,2,0,0,1-2,2H7a2,2,0,0,1-2-2Zm5.012,0H7v3.007h3.007Z" transform="translate(0.005 0.026)" fill="#3859c5" fill-rule="evenodd"/>
    <path id="Path_86" data-name="Path 86" d="M3,5A2,2,0,0,1,5,3h5.012a2,2,0,0,1,2,2v5.012a2,2,0,0,1-2,2H5a2,2,0,0,1-2-2Zm7.016,0H5v5.012h5.012Z" fill="#3859c5" fill-rule="evenodd"/>
    <path id="Path_87" data-name="Path 87" d="M14,16a2,2,0,0,1,2-2h3.007a2,2,0,0,1,2,2v3.007a2,2,0,0,1-2,2H16a2,2,0,0,1-2-2Zm5.012,0H16v3.007h3.007Z" transform="translate(0.026 0.026)" fill="#3859c5" fill-rule="evenodd"/>
    <path id="Path_88" data-name="Path 88" d="M14,7a2,2,0,0,1,2-2h3.007a2,2,0,0,1,2,2v3.007a2,2,0,0,1-2,2H16a2,2,0,0,1-2-2Zm5.012,0H16v3.007h3.007Z" transform="translate(0.026 0.005)" fill="#3859c5" fill-rule="evenodd"/>
  </g>
</svg>
