<svg xmlns="http://www.w3.org/2000/svg" width="29.004" height="26.05" viewBox="0 0 29.004 26.05">
  <g id="_1" data-name="1" transform="translate(-55.315 -65.716)">
    <path id="Path_67" data-name="Path 67" d="M77.037,84.3H72.994a1.088,1.088,0,1,1,0-2.175h4.043a5.085,5.085,0,1,0,0-10.169c-.137,0-.283.007-.445.021a1.088,1.088,0,0,1-1.033-.538A7.118,7.118,0,0,0,62.385,73.8a1.088,1.088,0,0,1-1.113.9H61.2a3.71,3.71,0,0,0,0,7.42h5.417a1.088,1.088,0,1,1,0,2.175H61.2a5.886,5.886,0,0,1-.766-11.721,9.293,9.293,0,0,1,16.652-2.8A7.259,7.259,0,1,1,77.037,84.3Z" fill="#3859c5"/>
    <path id="Path_68" data-name="Path 68" d="M196.534,352.487a1.087,1.087,0,0,1-.769-.319l-3.493-3.493a1.088,1.088,0,0,1,1.538-1.539l2.724,2.725,2.725-2.725a1.088,1.088,0,1,1,1.538,1.539l-3.493,3.493A1.088,1.088,0,0,1,196.534,352.487Z" transform="translate(-126.732 -260.721)" fill="#3859c5"/>
    <path id="Path_69" data-name="Path 69" d="M241.218,244.361a1.088,1.088,0,0,1-1.088-1.088V231.328a1.088,1.088,0,0,1,2.175,0v11.946A1.088,1.088,0,0,1,241.218,244.361Z" transform="translate(-171.415 -152.595)" fill="#3859c5"/>
  </g>
</svg>
