<svg xmlns="http://www.w3.org/2000/svg" width="22.6" height="25.831" viewBox="0 0 22.6 25.831">
  <g id="_2318454_address_book_contact_contact_book_contacts_icon" data-name="2318454_address book_contact_contact book_contacts_icon" transform="translate(-106.8 -85.7)">
    <g id="Group_70" data-name="Group 70" transform="translate(107.877 85.7)">
      <path id="Path_100" data-name="Path 100" d="M142.022,111.531H120.5v-5.379h2.147v3.224h17.221V87.855H122.647v4.3H120.5V85.7h21.522Z" transform="translate(-120.5 -85.7)" fill="#3859c5"/>
    </g>
    <g id="Group_71" data-name="Group 71" transform="translate(106.8 96.465)">
      <rect id="Rectangle_28" data-name="Rectangle 28" width="3.232" height="2.155" transform="translate(0 0)" fill="#3859c5"/>
    </g>
    <g id="Group_72" data-name="Group 72" transform="translate(106.8 101.844)">
      <rect id="Rectangle_29" data-name="Rectangle 29" width="3.232" height="2.155" transform="translate(0 0)" fill="#3859c5"/>
    </g>
    <g id="Group_73" data-name="Group 73" transform="translate(106.8 91.079)">
      <rect id="Rectangle_30" data-name="Rectangle 30" width="3.232" height="2.155" transform="translate(0)" fill="#3859c5"/>
    </g>
    <g id="Group_74" data-name="Group 74" transform="translate(107.877 99.689)">
      <rect id="Rectangle_31" data-name="Rectangle 31" width="2.155" height="3.232" transform="translate(0)" fill="#3859c5"/>
    </g>
    <g id="Group_75" data-name="Group 75" transform="translate(107.877 94.31)">
      <rect id="Rectangle_32" data-name="Rectangle 32" width="2.155" height="3.232" transform="translate(0)" fill="#3859c5"/>
    </g>
    <g id="Group_76" data-name="Group 76" transform="translate(114.325 92.148)">
      <path id="Path_101" data-name="Path 101" d="M206.809,176.318a4.309,4.309,0,1,1,4.309-4.309A4.316,4.316,0,0,1,206.809,176.318Zm0-6.456a2.155,2.155,0,1,0,2.155,2.155A2.158,2.158,0,0,0,206.809,169.862Z" transform="translate(-202.5 -167.7)" fill="#3859c5"/>
    </g>
    <g id="Group_77" data-name="Group 77" transform="translate(113.248 98.62)">
      <path id="Path_102" data-name="Path 102" d="M199.573,255.379h-2.155a3.232,3.232,0,0,0-6.464,0H188.8a5.386,5.386,0,0,1,10.773,0Z" transform="translate(-188.8 -250)" fill="#3859c5"/>
    </g>
  </g>
</svg>
