<svg xmlns="http://www.w3.org/2000/svg" width="22.599" height="26.811" viewBox="0 0 22.599 26.811">
  <g id="_1" data-name="1" transform="translate(-65.59 -48)">
    <path id="Path_65" data-name="Path 65" d="M81.791,150.344H66.59a1,1,0,0,1-1-1V129.93a1,1,0,0,1,1-1h15.2a1,1,0,0,1,1,1v19.413a1,1,0,0,1-1,1Zm-14.2-2h13.2V130.931h-13.2Z" transform="translate(0 -75.532)" fill="#3859c5"/>
    <path id="Path_66" data-name="Path 66" d="M162.721,69.414h-5.4a1,1,0,1,1,0-2h4.4V50h-13.2v4.4a1,1,0,0,1-2,0V49a1,1,0,0,1,1-1h15.2a1,1,0,0,1,1,1V68.413A1,1,0,0,1,162.721,69.414Z" transform="translate(-75.532)" fill="#3859c5"/>
  </g>
</svg>
