<svg id="edit" xmlns="http://www.w3.org/2000/svg" width="20" height="20" viewBox="0 0 20 20">
  <rect id="Rectangle_307" data-name="Rectangle 307" width="20" height="20" fill="#3859c5" opacity="0"/>
  <path id="Path_12143" data-name="Path 12143" d="M17.465,6.928l-2.4-2.4a1.749,1.749,0,0,0-2.326-.061l-7.87,7.87a1.749,1.749,0,0,0-.5,1.058L4,17.044A.872.872,0,0,0,4.874,18h.079L8.6,17.665a1.749,1.749,0,0,0,1.058-.5l7.87-7.87a1.679,1.679,0,0,0-.061-2.37ZM11.138,13.4,8.6,10.67l5.255-4.914,2.387,2.387Z" transform="translate(-0.994 -1.004)" fill="#3859c5"/>
</svg>
