<svg id="_1" data-name="1" xmlns="http://www.w3.org/2000/svg" width="23.589" height="27.985" viewBox="0 0 23.589 27.985">
  <path id="Path_65" data-name="Path 65" d="M82.5,151.281H66.634a1.044,1.044,0,0,1-1.044-1.044V129.974a1.044,1.044,0,0,1,1.044-1.044H82.5a1.044,1.044,0,0,1,1.044,1.044v20.263A1.044,1.044,0,0,1,82.5,151.281Zm-14.822-2.088H81.457V131.018H67.678Z" transform="translate(-65.59 -123.296)" fill="#3859c5"/>
  <path id="Path_66" data-name="Path 66" d="M163.431,70.351H157.8a1.044,1.044,0,1,1,0-2.088h4.59V50.088H148.608v4.589a1.044,1.044,0,0,1-2.088,0V49.044A1.044,1.044,0,0,1,147.564,48h15.867a1.044,1.044,0,0,1,1.044,1.044V69.307A1.044,1.044,0,0,1,163.431,70.351Z" transform="translate(-140.886 -48)" fill="#3859c5"/>
</svg>
