<svg xmlns="http://www.w3.org/2000/svg" width="18.43" height="21.932" viewBox="0 0 18.43 21.932">
  <path id="Icon_awesome-apple" data-name="Icon awesome-apple" d="M15.69,13.84a4.571,4.571,0,0,1,2.448-4.152A5.261,5.261,0,0,0,13.991,7.5c-1.738-.137-3.638,1.014-4.333,1.014-.734,0-2.419-.965-3.741-.965C3.185,7.6.281,9.732.281,14.075a12.2,12.2,0,0,0,.705,3.976c.627,1.8,2.889,6.2,5.249,6.13,1.234-.029,2.105-.876,3.712-.876,1.557,0,2.365.876,3.741.876,2.38-.034,4.426-4.04,5.024-5.841a4.854,4.854,0,0,1-3.021-4.5ZM12.919,5.8a4.612,4.612,0,0,0,1.175-3.55,5.192,5.192,0,0,0-3.325,1.709A4.684,4.684,0,0,0,9.516,7.479a4.112,4.112,0,0,0,3.4-1.679Z" transform="translate(-0.281 -2.25)" fill="#fff"/>
</svg>
