<svg xmlns="http://www.w3.org/2000/svg" width="20.617" height="19.241" viewBox="0 0 20.617 19.241">
  <path id="c5dfab272f88920531c941cd1f61ebd2" d="M1.687,5.436h.1a2.736,2.736,0,0,0,5.3,0H20.93a.687.687,0,1,0,0-1.374H7.088a2.736,2.736,0,0,0-5.3,0h-.1a.687.687,0,0,0,0,1.374ZM4.436,3.375A1.374,1.374,0,1,1,3.062,4.749,1.374,1.374,0,0,1,4.436,3.375Zm16.494,7.56h-.1a2.736,2.736,0,0,0-5.3,0H1.687a.687.687,0,0,0,0,1.374H15.529a2.736,2.736,0,0,0,5.3,0h.1a.687.687,0,1,0,0-1.374ZM18.181,13a1.374,1.374,0,1,1,1.374-1.374A1.374,1.374,0,0,1,18.181,13Zm2.749,4.811H13.96a2.736,2.736,0,0,0-5.3,0H1.687a.687.687,0,0,0,0,1.374h6.97a2.736,2.736,0,0,0,5.3,0h6.97a.687.687,0,1,0,0-1.374Zm-9.621,2.062a1.374,1.374,0,1,1,1.374-1.374A1.374,1.374,0,0,1,11.309,19.868Z" transform="translate(-1 -2.001)" fill="#fff"/>
</svg>
