<svg xmlns="http://www.w3.org/2000/svg" width="23.859" height="23.861" viewBox="0 0 23.859 23.861">
  <path id="dc25bab575b4e1c11b9c37bf740bef77" d="M25.442,2.287a1.193,1.193,0,0,0-.954-.274L8.979,4.4A1.193,1.193,0,0,0,7.965,5.579V17.926a4.116,4.116,0,0,0-1.789-.418,4.175,4.175,0,1,0,4.175,4.175V12.57l13.123-2.016V15.54a4.116,4.116,0,0,0-1.789-.418A4.175,4.175,0,1,0,25.859,19.3V3.193a1.193,1.193,0,0,0-.418-.907ZM6.175,23.474a1.789,1.789,0,1,1,1.789-1.789A1.789,1.789,0,0,1,6.175,23.474Zm15.509-2.386A1.789,1.789,0,1,1,23.473,19.3,1.789,1.789,0,0,1,21.684,21.088ZM23.473,8.132,10.351,10.148V6.569l13.123-1.98Z" transform="translate(-2 -1.999)" fill="#3859c5"/>
</svg>
