<svg xmlns="http://www.w3.org/2000/svg" width="20.951" height="20.951" viewBox="0 0 20.951 20.951">
  <g id="f5e0848e039ebf8234acd7456fac7720" transform="translate(-2 -2)">
    <path id="Path_26389" data-name="Path 26389" d="M20.609,11.219a4.609,4.609,0,1,1,4.609-4.609A4.615,4.615,0,0,1,20.609,11.219Zm0-7.542a2.933,2.933,0,1,0,2.933,2.933A2.936,2.936,0,0,0,20.609,3.676Z" transform="translate(-2.267)" fill="#ff3535"/>
    <path id="Path_26390" data-name="Path 26390" d="M17.085,23.6H4.514A2.517,2.517,0,0,1,2,21.085V8.514A2.517,2.517,0,0,1,4.514,6h6.7a.838.838,0,0,1,0,1.676h-6.7a.838.838,0,0,0-.838.838V21.085a.838.838,0,0,0,.838.838H17.085a.838.838,0,0,0,.838-.838v-6.7a.838.838,0,0,1,1.676,0v6.7A2.517,2.517,0,0,1,17.085,23.6Z" transform="translate(0 -0.648)" fill="#fff"/>
    <circle id="Ellipse_331" data-name="Ellipse 331" cx="3.5" cy="3.5" r="3.5" transform="translate(15 2.951)" fill="#ff3535"/>
  </g>
</svg>
