<svg xmlns="http://www.w3.org/2000/svg" width="23.5" height="23.5" viewBox="0 0 23.5 23.5">
  <path id="_94329e3337d21ea8375695ddba2084d1" data-name="94329e3337d21ea8375695ddba2084d1" d="M21.55,2H5.45A3.454,3.454,0,0,0,2,5.45v16.1A3.454,3.454,0,0,0,5.45,25h16.1a3.42,3.42,0,0,0,.62-.063c.076-.014.149-.035.223-.054a3.417,3.417,0,0,0,.359-.112c.086-.032.169-.066.251-.1s.189-.1.281-.153.174-.1.255-.156l.021-.013c.009-.006.016-.014.024-.02a.56.56,0,0,0,.05-.033c.008-.008.01-.018.017-.026A3.435,3.435,0,0,0,25,21.55V5.45A3.454,3.454,0,0,0,21.55,2Zm.661,21.741a2.242,2.242,0,0,1-.661.109H5.45a2.3,2.3,0,0,1-2.3-2.3V16.117L7.477,11.79a2.016,2.016,0,0,1,2.846,0L14.238,15.7s0,.005,0,.008l8.014,8.014ZM23.85,21.55a2.287,2.287,0,0,1-.6,1.538L15.464,15.3l1.214-1.214a2.055,2.055,0,0,1,2.844,0l4.328,4.328Zm0-4.757-3.515-3.515a3.163,3.163,0,0,0-4.47,0l-1.214,1.214-3.515-3.515a3.165,3.165,0,0,0-4.472,0L3.15,14.49V5.45a2.3,2.3,0,0,1,2.3-2.3h16.1a2.3,2.3,0,0,1,2.3,2.3ZM15.225,6.6A1.725,1.725,0,1,0,16.95,8.325,1.725,1.725,0,0,0,15.225,6.6Zm0,2.3a.575.575,0,1,1,.575-.575A.575.575,0,0,1,15.225,8.9Z" transform="translate(-1.75 -1.75)" fill="#3859c5" stroke="#3859c5" stroke-width="0.5"/>
</svg>
