<svg xmlns="http://www.w3.org/2000/svg" width="21" height="21" viewBox="0 0 21 21">
  <g id="Layer_47" data-name="Layer 47" transform="translate(0)">
    <path id="Path_75" data-name="Path 75" d="M6.29,52.79l3-1c.417.569.451,1.557,1,2v2l3,2,1-2a7.519,7.519,0,0,0,2,0l2,2,3-1-1-3c.575-.415,1.554-.449,2-1h2l2-3-2-1a6.891,6.891,0,0,0,0-2l2-2-1-3h-3a3.748,3.748,0,0,0-1-1v-3l-3-1-1,2a7.382,7.382,0,0,0-2,0l-2-2-3,1v3a3.641,3.641,0,0,0-1,1h-3l-1,3,2,1a7.1,7.1,0,0,0,0,2l-2,2Zm5-8c1.141-2.587,4.413-3.141,7-2s3.142,4.414,2,7-4.414,3.142-7,2S10.149,47.376,11.29,44.79Z" transform="translate(-5.29 -36.79)" fill="#3859c5"/>
  </g>
</svg>
